<svg aria-hidden="true" xmlns="http://www.w3.org/2000/svg" style="position: absolute; width: 0; height: 0; overflow: hidden;" xmlns:xlink="http://www.w3.org/1999/xlink" >

  <defs>
    <symbol id="icon-shuffle" viewBox="0 0 16 16" >
      <path fill-rule="evenodd" d="M0 3.5A.5.5 0 0 1 .5 3H1c2.202 0 3.827 1.24 4.874 2.418.49.552.865 1.102 1.126 1.532.26-.43.636-.98 1.126-1.532C9.173 4.24 10.798 3 13 3v1c-1.798 0-3.173 1.01-4.126 2.082A9.624 9.624 0 0 0 7.556 8a9.624 9.624 0 0 0 1.317 1.918C9.828 10.99 11.204 12 13 12v1c-2.202 0-3.827-1.24-4.874-2.418A10.595 10.595 0 0 1 7 9.05c-.26.43-.636.98-1.126 1.532C4.827 11.76 3.202 13 1 13H.5a.5.5 0 0 1 0-1H1c1.798 0 3.173-1.01 4.126-2.082A9.624 9.624 0 0 0 6.444 8a9.624 9.624 0 0 0-1.317-1.918C4.172 5.01 2.796 4 1 4H.5a.5.5 0 0 1-.5-.5z"/>
    </symbol>
    <symbol id="icon-search" viewBox="0 0 24 24">
      <path
        d="M16.041 15.856c-0.034 0.026-0.067 0.055-0.099 0.087s-0.060 0.064-0.087 0.099c-1.258 1.213-2.969 1.958-4.855 1.958-1.933 0-3.682-0.782-4.95-2.050s-2.050-3.017-2.050-4.95 0.782-3.682 2.050-4.95 3.017-2.050 4.95-2.050 3.682 0.782 4.95 2.050 2.050 3.017 2.050 4.95c0 1.886-0.745 3.597-1.959 4.856zM21.707 20.293l-3.675-3.675c1.231-1.54 1.968-3.493 1.968-5.618 0-2.485-1.008-4.736-2.636-6.364s-3.879-2.636-6.364-2.636-4.736 1.008-6.364 2.636-2.636 3.879-2.636 6.364 1.008 4.736 2.636 6.364 3.879 2.636 6.364 2.636c2.125 0 4.078-0.737 5.618-1.968l3.675 3.675c0.391 0.391 1.024 0.391 1.414 0s0.391-1.024 0-1.414z">
      </path>
    </symbol>
    <symbol id="icon-lightning" viewBox="0 0 16 16">
      <path d="M5.52.359A.5.5 0 0 1 6 0h4a.5.5 0 0 1 .474.658L8.694 6H12.5a.5.5 0 0 1 .395.807l-7 9a.5.5 0 0 1-.873-.454L6.823 9.5H3.5a.5.5 0 0 1-.48-.641l2.5-8.5zM6.374 1 4.168 8.5H7.5a.5.5 0 0 1 .478.647L6.78 13.04 11.478 7H8a.5.5 0 0 1-.474-.658L9.306 1H6.374z"/>
    </symbol>
    <symbol id="icon-loader" viewBox="0 0 24 24">
        <path
          d="M11 2v4c0 0.552 0.448 1 1 1s1-0.448 1-1v-4c0-0.552-0.448-1-1-1s-1 0.448-1 1zM11 18v4c0 0.552 0.448 1 1 1s1-0.448 1-1v-4c0-0.552-0.448-1-1-1s-1 0.448-1 1zM4.223 5.637l2.83 2.83c0.391 0.391 1.024 0.391 1.414 0s0.391-1.024 0-1.414l-2.83-2.83c-0.391-0.391-1.024-0.391-1.414 0s-0.391 1.024 0 1.414zM15.533 16.947l2.83 2.83c0.391 0.391 1.024 0.391 1.414 0s0.391-1.024 0-1.414l-2.83-2.83c-0.391-0.391-1.024-0.391-1.414 0s-0.391 1.024 0 1.414zM2 13h4c0.552 0 1-0.448 1-1s-0.448-1-1-1h-4c-0.552 0-1 0.448-1 1s0.448 1 1 1zM18 13h4c0.552 0 1-0.448 1-1s-0.448-1-1-1h-4c-0.552 0-1 0.448-1 1s0.448 1 1 1zM5.637 19.777l2.83-2.83c0.391-0.391 0.391-1.024 0-1.414s-1.024-0.391-1.414 0l-2.83 2.83c-0.391 0.391-0.391 1.024 0 1.414s1.024 0.391 1.414 0zM16.947 8.467l2.83-2.83c0.391-0.391 0.391-1.024 0-1.414s-1.024-0.391-1.414 0l-2.83 2.83c-0.391 0.391-0.391 1.024 0 1.414s1.024 0.391 1.414 0z">
        </path>
    </symbol>
    <symbol id="icon-error-triangle" viewBox="0 0 24 24">
      <path d="M8.982 1.566a1.13 1.13 0 0 0-1.96 0L.165 13.233c-.457.778.091 1.767.98 1.767h13.713c.889 0 1.438-.99.98-1.767L8.982 1.566zM8 5c.535 0 .954.462.9.995l-.35 3.507a.552.552 0 0 1-1.1 0L7.1 5.995A.905.905 0 0 1 8 5zm.002 6a1 1 0 1 1 0 2 1 1 0 0 1 0-2z"/>
    </symbol>
    <symbol id="icon-robot" viewBox="0 0 24 24">
      <path d="M6 12.5a.5.5 0 0 1 .5-.5h3a.5.5 0 0 1 0 1h-3a.5.5 0 0 1-.5-.5ZM3 8.062C3 6.76 4.235 5.765 5.53 5.886a26.58 26.58 0 0 0 4.94 0C11.765 5.765 13 6.76 13 8.062v1.157a.933.933 0 0 1-.765.935c-.845.147-2.34.346-4.235.346-1.895 0-3.39-.2-4.235-.346A.933.933 0 0 1 3 9.219V8.062Zm4.542-.827a.25.25 0 0 0-.217.068l-.92.9a24.767 24.767 0 0 1-1.871-.183.25.25 0 0 0-.068.495c.55.076 1.232.149 2.02.193a.25.25 0 0 0 .189-.071l.754-.736.847 1.71a.25.25 0 0 0 .404.062l.932-.97a25.286 25.286 0 0 0 1.922-.188.25.25 0 0 0-.068-.495c-.538.074-1.207.145-1.98.189a.25.25 0 0 0-.166.076l-.754.785-.842-1.7a.25.25 0 0 0-.182-.135Z"/>
      <path d="M8.5 1.866a1 1 0 1 0-1 0V3h-2A4.5 4.5 0 0 0 1 7.5V8a1 1 0 0 0-1 1v2a1 1 0 0 0 1 1v1a2 2 0 0 0 2 2h10a2 2 0 0 0 2-2v-1a1 1 0 0 0 1-1V9a1 1 0 0 0-1-1v-.5A4.5 4.5 0 0 0 10.5 3h-2V1.866ZM14 7.5V13a1 1 0 0 1-1 1H3a1 1 0 0 1-1-1V7.5A3.5 3.5 0 0 1 5.5 4h5A3.5 3.5 0 0 1 14 7.5Z"/>
    </symbol>
    <symbol id="icon-binoculars" viewBox="0 0 24 24">
    <path d="M4.5 1A1.5 1.5 0 0 0 3 2.5V3h4v-.5A1.5 1.5 0 0 0 5.5 1h-1zM7 4v1h2V4h4v.882a.5.5 0 0 0 .276.447l.895.447A1.5 1.5 0 0 1 15 7.118V13H9v-1.5a.5.5 0 0 1 .146-.354l.854-.853V9.5a.5.5 0 0 0-.5-.5h-3a.5.5 0 0 0-.5.5v.793l.854.853A.5.5 0 0 1 7 11.5V13H1V7.118a1.5 1.5 0 0 1 .83-1.342l.894-.447A.5.5 0 0 0 3 4.882V4h4zM1 14v.5A1.5 1.5 0 0 0 2.5 16h3A1.5 1.5 0 0 0 7 14.5V14H1zm8 0v.5a1.5 1.5 0 0 0 1.5 1.5h3a1.5 1.5 0 0 0 1.5-1.5V14H9zm4-11H9v-.5A1.5 1.5 0 0 1 10.5 1h1A1.5 1.5 0 0 1 13 2.5V3z"/>
    </symbol>
    <symbol id="icon-fire" viewBox="0 0 24 24">
      <path d="M8 16c3.314 0 6-2 6-5.5 0-1.5-.5-4-2.5-6 .25 1.5-1.25 2-1.25 2C11 4 9 .5 6 0c.357 2 .5 4-2 6-1.25 1-2 2.729-2 4.5C2 14 4.686 16 8 16Zm0-1c-1.657 0-3-1-3-2.75 0-.75.25-2 1.25-3C6.125 10 7 10.5 7 10.5c-.375-1.25.5-3.25 2-3.5-.179 1-.25 2 1 3 .625.5 1 1.364 1 2.25C11 14 9.657 15 8 15Z"/>
    </symbol>
  </defs>
</svg>